<?xml version="1.0" encoding="iso-8859-1"?>
<!-- Generator: Adobe Illustrator 19.0.0, SVG Export Plug-In . SVG Version: 6.00 Build 0)  -->
<svg fill="#573678" version="1.1" id="Capa_1" xmlns="http://www.w3.org/2000/svg" xmlns:xlink="http://www.w3.org/1999/xlink" x="0px" y="0px"
	 viewBox="0 0 512 512" style="enable-background:new 0 0 512 512;" xml:space="preserve">
<g>
	<g>
		<path d="M503.467,375.467H8.533C3.823,375.467,0,379.281,0,384c0,32.93,26.795,59.733,59.733,59.733h392.533
			C485.197,443.733,512,416.93,512,384C512,379.281,508.186,375.467,503.467,375.467z M452.267,426.667H59.733
			c-20.608,0-37.845-14.686-41.805-34.133h476.143C490.112,411.981,472.875,426.667,452.267,426.667z"/>
	</g>
</g>
<g>
	<g>
		<path d="M426.667,170.667H85.333c-23.526,0-42.667,19.14-42.667,42.667V384c0,4.719,3.823,8.533,8.533,8.533h409.6
			c4.719,0,8.533-3.814,8.533-8.533V213.333C469.333,189.807,450.193,170.667,426.667,170.667z M452.267,375.467H59.733V213.333
			c0-14.114,11.486-25.6,25.6-25.6h341.333c14.114,0,25.6,11.486,25.6,25.6V375.467z"/>
	</g>
</g>
<g>
	<g>
		<path d="M409.6,204.8H256v17.067h153.6c4.71,0,8.533,3.831,8.533,8.533v102.4c0,4.71-3.823,8.533-8.533,8.533H256V358.4h153.6
			c14.114,0,25.6-11.486,25.6-25.6V230.4C435.2,216.286,423.714,204.8,409.6,204.8z"/>
	</g>
</g>
<g>
	<g>
		<rect x="256" y="273.067" width="162.133" height="17.067"/>
	</g>
</g>
<g>
	<g>
		<rect x="247.467" y="179.2" width="17.067" height="204.8"/>
	</g>
</g>
<g>
	<g>
		<path d="M248.525,241.826c-15.701-12.57-37.632-12.57-53.333,0c-9.421,7.544-22.579,7.544-32,0
			c-15.701-12.57-37.632-12.57-53.333,0c-9.412,7.552-22.571,7.552-32.017-0.008c-7.518-5.99-16.956-9.284-26.573-9.284
			c-0.026,0-0.06,0-0.085,0l0.034,17.067c0.017,0,0.034,0,0.051,0c5.777,0,11.435,1.98,15.932,5.555
			c15.701,12.578,37.632,12.578,53.333,0c9.421-7.543,22.579-7.543,32,0c7.851,6.289,17.254,9.429,26.667,9.429
			s18.816-3.14,26.65-9.429c9.429-7.535,22.596-7.535,31.923-0.068c4.693,3.849,10.291,6.647,16.179,8.098l4.07-16.58
			C254.592,245.76,251.332,244.13,248.525,241.826z"/>
	</g>
</g>
<g>
	<g>
		<path d="M256,102.4c-23.526,0-42.667,19.14-42.667,42.667c0,23.526,19.14,42.667,42.667,42.667
			c23.526,0,42.667-19.14,42.667-42.667C298.667,121.54,279.526,102.4,256,102.4z M256,170.667c-14.114,0-25.6-11.486-25.6-25.6
			s11.486-25.6,25.6-25.6s25.6,11.486,25.6,25.6C281.6,159.181,270.114,170.667,256,170.667z"/>
	</g>
</g>
<g>
	<g>
		<path d="M247.467,110.933h17.067c0-14.114,11.486-25.6,25.6-25.6V68.267C266.607,68.267,247.467,87.407,247.467,110.933z"/>
	</g>
</g>
<g>
	<g>
		<rect x="93.867" y="204.8" width="17.067" height="17.067"/>
	</g>
</g>
<g>
	<g>
		<rect x="145.067" y="204.8" width="17.067" height="17.067"/>
	</g>
</g>
<g>
	<g>
		<rect x="196.267" y="204.8" width="17.067" height="17.067"/>
	</g>
</g>
<g>
</g>
<g>
</g>
<g>
</g>
<g>
</g>
<g>
</g>
<g>
</g>
<g>
</g>
<g>
</g>
<g>
</g>
<g>
</g>
<g>
</g>
<g>
</g>
<g>
</g>
<g>
</g>
<g>
</g>
</svg>
